<svg width="41" height="70" viewBox="0 0 41 70" fill="none" xmlns="http://www.w3.org/2000/svg">
<path d="M31.9028 1.48826C33.0751 1.00267 34.303 0.672772 35.5553 0.504809C36.3913 0.392678 37.1245 1.08676 37.1245 2V10.8219C37.1245 11.2477 36.7519 11.6566 36.208 11.8819C35.7985 12.0515 35.4264 12.3001 35.113 12.6135C34.7996 12.9269 34.551 13.299 34.3814 13.7084C34.2118 14.1179 34.1245 14.5568 34.1245 15V36.625H22.8745V15C22.8745 13.0794 23.2528 11.1776 23.9878 9.40326C24.7227 7.62887 25.8 6.01662 27.1581 4.65856C28.5161 3.30051 30.1284 2.22324 31.9028 1.48826Z" fill="#E1FF92" stroke="black" stroke-width="0.75" stroke-linejoin="round"/>
<path d="M38.5004 21.6248L7.49947 21.625C3.97867 21.625 1.12451 24.4792 1.12451 28V62.5C1.12451 66.0208 3.9787 68.875 7.49951 68.875H38.4995C39.2589 68.875 39.8745 68.2594 39.8745 67.5V58C39.8745 57.2406 39.2589 56.625 38.4995 56.625H14.9995C14.102 56.625 13.3745 55.8975 13.3745 55V35.5C13.3745 34.6025 14.102 33.875 14.9995 33.875L38.5004 33.8748C39.2598 33.8748 39.8754 33.2592 39.8754 32.4998V22.9998C39.8754 22.2404 39.2598 21.6248 38.5004 21.6248Z" fill="#CCFF33" stroke="black" stroke-width="0.75"/>
<mask id="path-3-inside-1_22617_200157" fill="white">
<path d="M22.4995 35H34.4995V67C34.4995 68.1046 33.6041 69 32.4995 69H24.4995C23.3949 69 22.4995 68.1046 22.4995 67V35Z"/>
</mask>
<path d="M22.4995 35H34.4995V67C34.4995 68.1046 33.6041 69 32.4995 69H24.4995C23.3949 69 22.4995 68.1046 22.4995 67V35Z" fill="#E1FF92"/>
<path d="M22.4995 35H34.4995H22.4995ZM35.2495 67C35.2495 68.5188 34.0183 69.75 32.4995 69.75H24.4995C22.9807 69.75 21.7495 68.5188 21.7495 67H23.2495C23.2495 67.6904 23.8092 68.25 24.4995 68.25H32.4995C33.1899 68.25 33.7495 67.6904 33.7495 67H35.2495ZM24.4995 69.75C22.9807 69.75 21.7495 68.5188 21.7495 67V35H23.2495V67C23.2495 67.6904 23.8092 68.25 24.4995 68.25V69.75ZM35.2495 35V67C35.2495 68.5188 34.0183 69.75 32.4995 69.75V68.25C33.1899 68.25 33.7495 67.6904 33.7495 67V35H35.2495Z" fill="black" mask="url(#path-3-inside-1_22617_200157)"/>
</svg>
