<svg width="1024" height="639" viewBox="0 0 1024 639" fill="none" xmlns="http://www.w3.org/2000/svg">
<path fill-rule="evenodd" clip-rule="evenodd" d="M505.514 476.33C643.496 476.853 784.658 505.501 970.33 563.124C980.331 566.268 990.444 569.493 1000.68 572.804C1018.37 578.531 1028.08 597.521 1022.35 615.221C1016.63 632.92 997.635 642.625 979.936 636.898C789.932 575.417 646.621 544.842 506.365 544.274C366.269 543.707 226.789 573.075 44.5384 635.057C26.9263 641.046 7.79293 631.625 1.80303 614.013C-4.1866 596.401 5.23513 577.267 22.847 571.277C28.6565 569.302 34.4288 567.358 40.1644 565.443C41.534 565.173 42.9022 564.817 44.262 564.367C225.938 504.326 365.252 475.799 505.514 476.33ZM497.51 15.4795C507.723 12.2696 518.654 12.1765 528.907 15.1992L529.898 15.501L863.232 120.765H863.231C883.309 127.105 897.826 144.543 900.467 165.37L900.583 166.364L930.434 442.478C931.857 455.642 928.431 468.115 921.66 478.223C764.778 433.073 634.923 409.453 505.769 408.964C377.277 408.477 251.19 430.888 101.507 475.671C96.4308 466.395 94.0155 455.507 95.2425 444.096L125.101 166.412L125.218 165.416C127.853 144.551 142.406 127.084 162.528 120.76L497.51 15.4795Z" fill="white"/>
<path d="M531.25 275C531.25 302.614 509.704 325 483.125 325C456.546 325 435 302.614 435 275C435 247.386 456.546 225 483.125 225C509.704 225 531.25 247.386 531.25 275ZM531.25 275V125C537.667 135 542.8 177 589 185" stroke="black" stroke-width="26.9468" stroke-linecap="round" stroke-linejoin="round"/>
<path d="M474.274 17.5456C475.504 8.32022 483.173 1.30551 492.472 0.901239L513.2 0L533.384 0.877573C542.921 1.29222 550.705 8.65038 551.655 18.149L552.689 28.4895C553.819 39.7923 544.943 49.6 533.584 49.6H491.93C480.318 49.6 471.364 39.3725 472.898 27.8625L474.274 17.5456Z" fill="white"/>
</svg>
